# xmcd
#
# Track frame offsets:
#	150
#	17436
#	35952
#	55274
#	66960
#	84240
#	95740
#	111720
#	129538
#	152221
#	163283
#	174812
#	189333
#	207790
#	225285
#
# Disc length: 3264
#
# Revision: 2
# Processed by: cddbd v1.5.1PL0 Copyright (c) Steve Scherf et al.
# Submitted via: audiograbber 1.83.01
# Normalized: r1:DSETVAR1
#
DISCID=c70cbe0f
DTITLE=Various Artist - NuTech
DYEAR=1900
DGENRE=various
TTITLE0=Johnny Cash - A Boy Named Sue
TTITLE1=Wynonna - No One Else On Earth
TTITLE2=Reba McEntire - She Thinks His Name Was John
TTITLE3=Emmy Lou Harris - Mr. Sandman
TTITLE4=Vince Gill - Pretty Little Adriana
TTITLE5=Garth Brooks - Two Of A Kind (Working On A Full House)
TTITLE6=George Strait - Famous Last Words Of A Fool
TTITLE7=Clint Black and Martina McBride - Still Holding On
TTITLE8=Judds - Love Can Build A Bridge
TTITLE9=Willie Nelson - All Of Me
TTITLE10=Tanya Tucker - Let The Good Times Roll
TTITLE11=Patsy Cline - She's Got You
TTITLE12=John Michael Montgomery - I Love The Way That You Love Me
TTITLE13=Toby Keith - Me Too
TTITLE14=Waylon Jennings - Rainy Day Women
EXTD=
EXTT0=
EXTT1=
EXTT2=
EXTT3=
EXTT4=
EXTT5=
EXTT6=
EXTT7=
EXTT8=
EXTT9=
EXTT10=
EXTT11=
EXTT12=
EXTT13=
EXTT14=
PLAYORDER=
